<svg width="240px" viewBox="0 0 183 38" xmlns="http://www.w3.org/2000/svg">
    <g stroke="none" stroke-width="1" fill="white" fill-rule="evenodd">
        <g transform="translate(-418.000000, -4751.000000)">
            <g transform="translate(418.000000, 4751.000000)">
                <g>
                    <path
                        d="M180.367285,23.18288 L175.8512,23.18288 L171.36231,19.382685 L166.855535,23.18288 L162.35219,23.18288 C161.71813,23.18288 161.12229,22.93592 160.674185,22.48708 C160.225835,22.038485 159.979855,21.441665 159.980588,20.807605 L159.993085,10.6575 C159.99382,10.031525 160.23539,9.44083 160.67345,8.99346 L160.770715,8.903055 L171.36182,0 L182.05313,8.99591 C182.48972,9.441565 182.73031,10.030545 182.730555,10.654315 L182.743055,20.803195 C182.744275,21.43799 182.49756,22.03579 182.048475,22.48561 C181.599635,22.935185 181.00257,23.18288 180.367285,23.18288 M176.857415,20.436675 L179.9966,20.436675 L179.98484,10.83635 L171.36182,3.58778 L162.7388,10.83586 L162.72753,20.436675 L165.852505,20.436675 L171.36574,15.787555 L176.857415,20.436675"
                        color="#55B89B" class="sc-gswNZR eDaaeU"></path>
                    <path
                        d="M17.5126,7.269395 C17.254125,7.05404 16.95841,6.8894 16.6257,6.77425 C16.29348,6.6591 15.949745,6.601525 15.594985,6.601525 C15.240225,6.601525 14.89649,6.6591 14.56378,6.77425 C14.23156,6.8894 13.931925,7.05404 13.6661,7.269395 C13.399785,7.484015 13.18933,7.75621 13.034245,8.08696 C12.87916,8.41673 12.801495,8.788885 12.801495,9.203425 C12.801495,9.61821 12.87916,9.98669 13.034245,10.30911 C13.18933,10.63104 13.399785,10.903725 13.6661,11.126185 C13.931925,11.34889 14.23156,11.513775 14.56378,11.62133 C14.89649,11.728395 15.240225,11.782785 15.594985,11.782785 C15.949745,11.782785 16.29348,11.728395 16.6257,11.62133 C16.95841,11.513775 17.254125,11.34889 17.5126,11.126185 C17.771075,10.903725 17.9781,10.63104 18.13343,10.30911 C18.288515,9.98669 18.366425,9.61821 18.366425,9.203425 C18.366425,8.788885 18.288515,8.41673 18.13343,8.08696 C17.9781,7.75621 17.771075,7.484015 17.5126,7.269395 L17.5126,7.269395 Z M49.89033,13.21971 C48.956635,13.21971 48.03421,13.38729 47.12428,13.721225 C46.214105,14.055895 45.48376,14.53389 44.933,15.156925 L44.933,6.751955 L39.79584,6.751955 L39.79584,29.822135 L44.968525,29.822135 L44.968525,21.105525 C44.968525,20.621405 45.0408,20.16644 45.18437,19.739405 C45.32843,19.313105 45.543785,18.938745 45.83117,18.615345 C46.1188,18.292925 46.477725,18.033225 46.90868,17.837225 C47.33988,17.64147 47.830615,17.54298 48.38162,17.54298 C49.219765,17.54298 49.89033,17.80856 50.393315,18.33874 C50.8963,18.869655 51.147915,19.607105 51.147915,20.552315 L51.147915,29.822135 L56.285075,29.822135 L56.285075,19.79159 C56.285075,17.624075 55.703935,15.986985 54.54239,14.880075 C53.380845,13.77292 51.830485,13.21971 49.89033,13.21971 L49.89033,13.21971 Z M29.733935,13.254255 C28.272755,13.254255 26.94951,13.46177 25.764445,13.877045 C24.578645,14.29183 23.560425,14.88571 22.71052,15.658195 C21.86037,16.430925 21.20181,17.353105 20.735085,18.425225 C20.267625,19.497345 20.03414,20.69074 20.03414,22.00492 C20.03414,23.135105 20.2076,24.17317 20.555255,25.118135 C20.902175,26.06359 21.39928,26.88189 22.045835,27.573525 C22.69288,28.26516 23.48864,28.80122 24.435075,29.182195 C25.38053,29.56268 26.45216,29.7528 27.65021,29.7528 C29.44655,29.7528 30.883475,29.303225 31.960985,28.40383 L31.960985,29.545285 C31.960985,30.743825 31.625335,31.642975 30.95526,32.24298 C30.284205,32.84274 29.362025,33.142375 28.18921,33.142375 C27.27879,33.142375 26.446525,33.03286 25.692415,32.81383 C24.93806,32.594555 24.22511,32.288795 23.555035,31.89753 L21.471065,35.425285 C22.405495,36.024555 23.434495,36.46286 24.560515,36.73971 C25.686045,37.016315 27.003655,37.154495 28.512365,37.154495 C31.171105,37.154495 33.2661,36.5148 34.799065,35.235165 C36.331295,33.95504 37.09839,31.97789 37.09839,29.303225 L37.09839,14.4648 C36.092175,14.119105 34.960765,13.83074 33.70367,13.600195 C32.446085,13.37014 31.12284,13.254255 29.733935,13.254255 L29.733935,13.254255 Z M31.996755,22.593165 C31.996755,23.65426 31.709615,24.432135 31.134845,24.92777 C30.55983,25.42414 29.745695,25.671345 28.69195,25.671345 C27.56593,25.671345 26.7099,25.325405 26.12337,24.63377 C25.53635,23.942135 25.24333,23.008195 25.24333,21.832195 C25.24333,21.232925 25.333,20.662075 25.512585,20.11989 C25.692415,19.578685 25.96755,19.10559 26.33897,18.702075 C26.7099,18.298805 27.1705,17.97565 27.721995,17.73359 C28.272755,17.49153 28.91931,17.370255 29.661905,17.370255 C30.21291,17.370255 30.65538,17.39941 30.991275,17.45674 C31.32619,17.51456 31.661595,17.601045 31.996755,17.716195 L31.996755,22.593165 Z M12.993085,29.822135 L18.16626,29.822135 L18.16626,13.60044 L12.993085,13.60044 L12.993085,29.822135 Z M9.84312,13.289045 C8.645315,13.289045 7.669725,13.542865 6.915125,14.04977 C6.16077,14.55741 5.56836,15.08759 5.136915,15.6408 L4.95782,13.600195 L0,13.600195 L0,29.822135 L5.173175,29.822135 L5.173175,21.79765 C5.173175,20.506255 5.55023,19.50935 6.304585,18.805465 C7.059185,18.10256 8.04678,17.750985 9.268105,17.750985 C9.85096,17.750985 10.36693,17.806845 10.82312,17.912685 L11.65269,13.50391 C11.441255,13.44168 11.227615,13.38925 11.01079,13.358135 C10.68739,13.31232 10.29784,13.289045 9.84312,13.289045 L9.84312,13.289045 Z M68.49563,26.10377 C68.11245,26.276495 67.65675,26.363225 67.13,26.363225 C66.435425,26.363225 65.926805,26.150075 65.603405,25.72353 C65.28025,25.296495 65.11855,24.691345 65.11855,23.90759 L65.11855,17.508925 L69.46534,17.508925 L69.46534,13.600195 L65.11855,13.600195 L65.11855,8.68868 L59.945375,8.68868 L59.945375,13.600195 L57.287125,13.600195 L57.287125,17.508925 L59.945375,17.508925 L59.945375,23.63074 C59.945375,24.64553 60.053175,25.56771 60.26902,26.39777 C60.484375,27.228075 60.8433,27.93686 61.34653,28.525105 C61.849515,29.113105 62.50783,29.574685 63.322455,29.908375 C64.1361,30.242555 65.142315,30.40989 66.339875,30.40989 C68.066635,30.40989 69.675305,29.899555 71.16858,28.88844 L69.535655,25.52165 C69.210785,25.741905 68.8646,25.93668 68.49563,26.10377 L68.49563,26.10377 Z M154.48671,22.351105 C154.48671,20.990375 154.30688,19.739405 153.947465,18.59795 C153.58854,17.45674 153.05542,16.47674 152.34884,15.658195 C151.642505,14.839895 150.773735,14.2002 149.744735,13.738865 C148.714755,13.277285 147.517195,13.046985 146.1523,13.046985 C144.78667,13.046985 143.565835,13.283655 142.48808,13.75577 C141.41008,14.228865 140.49966,14.857045 139.757555,15.6408 C139.015205,16.425045 138.446315,17.34159 138.05113,18.390435 C137.655945,19.440015 137.45872,20.529775 137.45872,21.65947 C137.45872,22.95111 137.66795,24.1325 138.0869,25.20462 C138.506095,26.276495 139.116635,27.193285 139.919255,27.954255 C140.72163,28.71498 141.69771,29.309105 142.847005,29.73565 C143.996545,30.16195 145.290145,30.3751 146.726825,30.3751 C147.804825,30.3751 148.762285,30.2771 149.60092,30.0811 C150.439065,29.8851 151.163775,29.66117 151.774315,29.406615 C152.3851,29.15353 152.88147,28.894075 153.26514,28.628495 C153.64783,28.36414 153.93546,28.17353 154.127295,28.058135 L152.0078,24.91062 C151.624375,25.18747 151.01408,25.516015 150.17569,25.896255 C149.337055,26.276495 148.247295,26.467105 146.906655,26.467105 C145.54127,26.467105 144.469395,26.138315 143.691275,25.48098 C142.913155,24.824135 142.5116,24.05753 142.48808,23.18092 L154.48671,23.18092 L154.48671,22.351105 Z M142.48808,19.999105 C142.48808,19.65292 142.565255,19.301835 142.72132,18.944135 C142.876895,18.58668 143.1045,18.258135 143.404135,17.9585 C143.703035,17.658865 144.08009,17.41068 144.535545,17.21468 C144.99002,17.01917 145.51726,16.92068 146.11653,16.92068 C146.714575,16.92068 147.230055,17.01917 147.660765,17.21468 C148.091965,17.41068 148.45138,17.658865 148.73852,17.9585 C149.02615,18.258135 149.24175,18.58668 149.385075,18.944135 C149.529135,19.301835 149.60092,19.65292 149.60092,19.999105 L142.48808,19.999105 Z M132.530055,13.600195 L128.686005,24.25304 L124.697895,13.600195 L118.95044,13.600195 L126.063525,29.822135 L130.94907,29.822135 L138.169955,13.600195 L132.530055,13.600195 Z M117.15116,15.57171 C116.36079,14.788445 115.41411,14.170555 114.31308,13.721225 C113.21107,13.27165 111.989745,13.046985 110.64837,13.046985 C109.306995,13.046985 108.080035,13.27165 106.96651,13.721225 C105.852495,14.170555 104.900915,14.788445 104.1103,15.57171 C103.31993,16.355955 102.703265,17.2725 102.26006,18.321835 C101.816855,19.37068 101.595375,20.494985 101.595375,21.69377 C101.595375,22.893045 101.816855,24.017105 102.26006,25.066195 C102.703265,26.11602 103.31993,27.03232 104.1103,27.815585 C104.900915,28.600075 105.852495,29.222375 106.96651,29.683465 C108.080035,30.1448 109.306995,30.3751 110.64837,30.3751 C111.989745,30.3751 113.21107,30.1448 114.31308,29.683465 C115.41411,29.222375 116.36079,28.600075 117.15116,27.815585 C117.941285,27.03232 118.557705,26.11602 119.00091,25.066195 C119.44387,24.017105 119.665595,22.893045 119.665595,21.69377 C119.665595,20.494985 119.44387,19.37068 119.00091,18.321835 C118.557705,17.2725 117.941285,16.355955 117.15116,15.57171 L117.15116,15.57171 Z M114.420635,23.302195 C114.252565,23.82086 113.995315,24.28783 113.648395,24.703105 C113.300985,25.118135 112.87591,25.44668 112.372925,25.68874 C111.870185,25.9308 111.294925,26.05183 110.64837,26.05183 C110.001815,26.05183 109.421165,25.9308 108.90642,25.68874 C108.39094,25.44668 107.966355,25.118135 107.63095,24.703105 C107.295055,24.28783 107.038295,23.82086 106.85871,23.302195 C106.67888,22.783285 106.58921,22.247225 106.58921,21.69377 C106.58921,21.140315 106.67888,20.6045 106.85871,20.08559 C107.038295,19.56668 107.295055,19.10559 107.63095,18.702075 C107.966355,18.298805 108.39094,17.97565 108.90642,17.73359 C109.421165,17.49153 110.001815,17.370255 110.64837,17.370255 C111.294925,17.370255 111.870185,17.49153 112.372925,17.73359 C112.87591,17.97565 113.300985,18.298805 113.648395,18.702075 C113.995315,19.10559 114.252565,19.56668 114.420635,20.08559 C114.587725,20.6045 114.672005,21.140315 114.672005,21.69377 C114.672005,22.247225 114.587725,22.783285 114.420635,23.302195 L114.420635,23.302195 Z M93.21123,13.21971 C92.133475,13.21971 91.09737,13.415955 90.103895,13.807955 C89.109685,14.2002 88.26517,14.75341 87.57133,15.468075 C87.379005,15.2145 87.13376,14.955045 86.834615,14.689465 C86.535225,14.42511 86.188305,14.18305 85.79312,13.963285 C85.397935,13.7445 84.9366,13.56516 84.40985,13.42747 C83.88261,13.289045 83.284075,13.21971 82.613755,13.21971 C81.511745,13.21971 80.55355,13.42747 79.73966,13.842255 C78.92528,14.257775 78.25447,14.77595 77.72772,15.398985 L77.548625,13.600195 L72.59056,13.600195 L72.59056,29.822135 L77.763735,29.822135 L77.763735,21.105525 C77.763735,20.06844 78.069005,19.21535 78.680035,18.54601 C79.29082,17.877895 80.086825,17.54298 81.06903,17.54298 C81.954705,17.54298 82.61939,17.80856 83.063085,18.33874 C83.505555,18.869655 83.72728,19.618375 83.72728,20.587105 L83.72728,29.822135 L88.72087,29.822135 L88.72087,21.105525 C88.72087,20.06844 89.01977,19.21535 89.61904,18.54601 C90.21733,17.877895 91.01995,17.54298 92.025675,17.54298 C92.911595,17.54298 93.57628,17.80856 94.019485,18.33874 C94.462445,18.869655 94.68417,19.618375 94.68417,20.587105 L94.68417,29.822135 L99.85759,29.822135 L99.85759,19.79159 C99.85759,17.762745 99.28821,16.15971 98.150675,14.983465 C97.012895,13.807955 95.366495,13.21971 93.21123,13.21971 L93.21123,13.21971 Z"
                        color="#FFFFFF" class="sc-gswNZR goUHfR"></path>
                </g>
            </g>
        </g>
    </g>
</svg>