<svg width="240px" viewBox="0 0 183 38" xmlns="http://www.w3.org/2000/svg">
    <g fill="white">
        <path color="#FFFFFF"
            d="M45.015 15h17.162v3.217H55.43v18.085h-3.71V18.217H45V15h.015zm16.43 5.878h3.171v2.977h.06c.105-.421.3-.827.584-1.218a5.41 5.41 0 011.032-1.082 5.473 5.473 0 011.347-.797 4.103 4.103 0 011.511-.3c.39 0 .673.014.823.03.15.014.3.044.464.06v3.277c-.24-.045-.479-.076-.733-.106a6.186 6.186 0 00-.733-.045 3.95 3.95 0 00-1.616.346 3.726 3.726 0 00-1.317 1.007 5.112 5.112 0 00-.898 1.654c-.224.661-.33 1.413-.33 2.27v7.336h-3.38V20.878h.014zm24.538 15.424h-3.321v-2.15h-.06c-.42.782-1.033 1.399-1.856 1.865-.823.466-1.66.706-2.513.706-2.02 0-3.487-.496-4.385-1.503-.897-1.007-1.346-2.526-1.346-4.555v-9.787h3.381v9.456c0 1.353.255 2.315.778 2.871.51.557 1.242.842 2.17.842.718 0 1.302-.105 1.78-.33.48-.226.869-.512 1.153-.887.3-.361.509-.812.643-1.323a6.544 6.544 0 00.195-1.669v-8.945h3.381v15.41zm5.761-4.946c.105.993.479 1.684 1.122 2.09.659.39 1.437.601 2.35.601a10 10 0 001.077-.075c.404-.045.793-.15 1.137-.285a2.19 2.19 0 00.883-.617c.224-.27.329-.616.314-1.052a1.455 1.455 0 00-.479-1.068c-.3-.285-.673-.496-1.137-.676a11.372 11.372 0 00-1.586-.436c-.599-.12-1.197-.256-1.81-.39a17.121 17.121 0 01-1.826-.512 5.564 5.564 0 01-1.571-.812 3.565 3.565 0 01-1.107-1.293c-.285-.526-.42-1.172-.42-1.954 0-.842.21-1.533.614-2.105a4.658 4.658 0 011.541-1.368 7.12 7.12 0 012.08-.736c.763-.136 1.496-.21 2.185-.21.793 0 1.556.09 2.274.255a5.848 5.848 0 011.96.827 4.858 4.858 0 011.452 1.473c.389.601.628 1.338.733 2.195h-3.531c-.165-.812-.524-1.368-1.108-1.639-.583-.286-1.257-.42-2.005-.42-.24 0-.523.014-.853.06a4.65 4.65 0 00-.927.225 2.01 2.01 0 00-.733.48c-.195.211-.3.482-.3.828 0 .42.15.751.434 1.007.284.255.659.466 1.122.646.464.166.988.316 1.586.436.599.12 1.212.256 1.84.391a19.02 19.02 0 011.811.511 5.456 5.456 0 011.586.812 4.01 4.01 0 011.123 1.278c.284.511.434 1.158.434 1.91 0 .916-.21 1.683-.629 2.33a4.984 4.984 0 01-1.616 1.548 7.577 7.577 0 01-2.214.872c-.808.18-1.616.27-2.41.27-.972 0-1.87-.105-2.693-.33-.823-.226-1.54-.557-2.14-.993a4.914 4.914 0 01-1.42-1.668c-.345-.662-.525-1.459-.554-2.376h3.411v-.03zm11.162-10.478h2.559v-4.63h3.382v4.63h3.052v2.54h-3.052v8.239c0 .36.015.661.045.932.03.256.104.481.209.662a.96.96 0 00.494.405c.224.09.509.136.898.136.239 0 .478 0 .718-.015s.479-.045.718-.106v2.631c-.374.045-.748.076-1.092.12-.36.046-.718.06-1.093.06-.897 0-1.616-.09-2.154-.255-.539-.165-.973-.42-1.272-.751-.314-.331-.509-.737-.629-1.233a9.31 9.31 0 01-.194-1.699v-9.095h-2.559v-2.57h-.03zm11.387 0h3.202v2.09h.06c.479-.902 1.137-1.534 1.99-1.925a6.531 6.531 0 012.768-.586c1.212 0 2.26.21 3.157.647a6.175 6.175 0 012.245 1.758c.598.752 1.032 1.624 1.332 2.616.299.992.448 2.06.448 3.187a11.1 11.1 0 01-.404 3.007 8.064 8.064 0 01-1.212 2.586 5.955 5.955 0 01-2.064 1.789c-.838.45-1.81.676-2.948.676-.494 0-.988-.045-1.481-.135a6.498 6.498 0 01-1.422-.436 5.128 5.128 0 01-1.257-.767 4.755 4.755 0 01-.972-1.082h-.06V42h-3.382V20.878zm11.82 7.727c0-.691-.089-1.368-.268-2.03a5.485 5.485 0 00-.808-1.743 4.124 4.124 0 00-1.332-1.218 3.72 3.72 0 00-1.84-.466c-1.422 0-2.5.496-3.218 1.488-.718.993-1.077 2.316-1.077 3.97 0 .781.09 1.503.284 2.164.195.662.464 1.233.853 1.714.374.48.823.857 1.347 1.127.524.286 1.137.421 1.825.421.778 0 1.422-.165 1.96-.48a4.147 4.147 0 001.317-1.234 5.135 5.135 0 00.748-1.728 9.69 9.69 0 00.21-1.985zM132.085 15h3.382v3.217h-3.382V15zm0 5.878h3.382v15.424h-3.382V20.878zM138.488 15h3.382v21.302h-3.382V15zm13.751 21.723c-1.227 0-2.32-.21-3.277-.616a7.234 7.234 0 01-2.439-1.684 7.339 7.339 0 01-1.511-2.57c-.344-.993-.524-2.09-.524-3.278 0-1.172.18-2.255.524-3.247a7.339 7.339 0 011.511-2.57c.659-.722 1.482-1.279 2.44-1.685.957-.405 2.05-.616 3.276-.616 1.227 0 2.32.21 3.277.616a7.234 7.234 0 012.439 1.684 7.339 7.339 0 011.511 2.571c.344.992.524 2.075.524 3.247 0 1.188-.18 2.285-.524 3.277a7.339 7.339 0 01-1.511 2.571c-.658.722-1.481 1.278-2.44 1.684-.957.406-2.049.616-3.276.616zm0-2.69c.748 0 1.407-.166 1.96-.482a4.178 4.178 0 001.362-1.248c.359-.51.613-1.097.793-1.743a8.017 8.017 0 00.254-1.985c0-.661-.09-1.308-.254-1.97a5.155 5.155 0 00-.793-1.743 4.134 4.134 0 00-1.362-1.233c-.553-.316-1.212-.48-1.96-.48s-1.406.164-1.96.48a4.304 4.304 0 00-1.362 1.233c-.359.511-.613 1.082-.793 1.744a8.082 8.082 0 00-.254 1.97c0 .676.09 1.337.254 1.984a5.29 5.29 0 00.793 1.743c.36.512.808.933 1.362 1.248.554.331 1.212.481 1.96.481zm8.738-13.155h2.559v-4.63h3.382v4.63h3.052v2.54h-3.052v8.239c0 .36.015.661.045.932.03.256.104.481.209.662a.96.96 0 00.494.405c.224.09.509.136.898.136.239 0 .478 0 .718-.015s.479-.045.718-.106v2.631c-.374.045-.748.076-1.092.12-.36.046-.719.06-1.093.06-.897 0-1.616-.09-2.154-.255-.539-.165-.973-.42-1.272-.751-.314-.331-.509-.737-.629-1.233a9.31 9.31 0 01-.194-1.699v-9.095h-2.559v-2.57h-.03z"
            class="sc-gswNZR goUHfR"></path>
        <path color="#1AB075"
            d="M41 14.9046512L25.3435311 14.9046512 20.5075562 0 15.6564689 14.9046512 0 14.8895349 12.6793218 24.1104651 7.82823443 39 20.5075562 29.794186 33.1717656 39 28.3357906 24.1104651z"
            class="sc-gswNZR dLfyDB"></path>
        <path color="#005128" d="M29 27.5585106L27.9016949 24 20 30z" class="sc-gswNZR cGFRgP"></path>
    </g>
</svg>